<?xml version="1.0" encoding="UTF-8"?>
<svg id="Layer_2" data-name="Layer 2" xmlns="http://www.w3.org/2000/svg" viewBox="0 0 134 127.13">
  <defs>
    <style>
      .cls-1 {
        fill: #fff;
      }

      .cls-2 {
        fill: #ff0600;
      }

      .cls-3 {
        opacity: .6;
      }

      .cls-3, .cls-4, .cls-5 {
        fill: #051820;
      }

      .cls-4 {
        opacity: .3;
      }

      .cls-5 {
        opacity: .36;
      }
    </style>
  </defs>
  <g id="HERO">
    <g>
      <polygon class="cls-5" points="134 56.97 67 127.13 0 56.97 0 0 134 0 134 56.97"/>
      <polygon class="cls-4" points="134 32.14 67 102.3 0 32.14 0 .84 134 .84 134 32.14"/>
      <polygon class="cls-3" points="134 5.7 67 75.86 0 5.7 0 .59 134 .59 134 5.7"/>
    </g>
    <g>
      <path class="cls-1" d="M75.41,31.97l-20.92,48.91c-2.76,6.45-10.23,11.71-16.73,11.71h-7.83l21.74-50.85,23.74-9.77Z"/>
      <polygon class="cls-2" points="53.05 38.52 57.25 28.7 80.98 18.93 76.79 28.7 53.05 38.52"/>
      <path class="cls-1" d="M74.54,87.42h-7.88c-6.45,0-9.46-5.22-6.7-11.71l18.72-43.74,23.74-9.77-27.88,65.22Z"/>
      <path class="cls-1" d="M77.81,87.42h7.88c6.45,0,13.91-5.22,16.73-11.71l6.85-16.01c1.94-4.5-.15-8.13-4.66-8.13h-11.41l-15.4,35.86Z"/>
    </g>
  </g>
</svg>