<?xml version="1.0" encoding="UTF-8"?>
<svg id="Layer_2" data-name="Layer 2" xmlns="http://www.w3.org/2000/svg" viewBox="0 0 725.3 150">
  <defs>
    <style>
      .cls-1 {
        fill: #fff;
      }

      .cls-2 {
        fill: #ff0600;
      }

      .cls-3 {
        fill: #19c8ff;
      }
    </style>
  </defs>
  <g id="jb-logo-lgt">
    <g>
      <g>
        <path class="cls-3" d="M83.25,37.07L45.24,125.92c-4.98,11.62-18.41,21.08-29.94,21.08H4.55L44.78,52.91l38.48-15.84m5.65-5.57l-46.4,19.1L0,150H15.3c12.7,0,27.3-10.3,32.7-22.9L88.9,31.5h0Z"/>
        <path class="cls-2" d="M93.14,5.57l-4.82,11.22-38.48,15.92,4.83-11.31L93.14,5.57m5.66-5.57L52.4,19.1l-8.2,19.2,46.4-19.2L98.8,0h0Z"/>
        <path class="cls-3" d="M136.06,17.97l-50.84,118.93h-13.42c-4.7,0-8.39-1.66-10.39-4.68-2.29-3.47-2.27-8.59,.05-14.04L97.58,33.81l38.48-15.84m5.64-5.57l-46.4,19.1L58.7,117c-5.4,12.7,.5,22.9,13.1,22.9h15.4L141.7,12.4h0Z"/>
        <path class="cls-3" d="M146,72.8c2.98,0,5.29,1.01,6.5,2.86,1.41,2.14,1.35,5.37-.15,8.86l-13.4,31.29c-5.04,11.63-18.47,21.09-29.95,21.09h-10.85l27.52-64.1h20.32m0-3h-22.3l-30.1,70.1h15.4c12.6,0,27.2-10.2,32.7-22.9l13.4-31.3c3.8-8.8-.3-15.9-9.1-15.9h0Z"/>
      </g>
      <g>
        <path class="cls-1" d="M195.84,131.83l4.27-1.49c3.45-1.26,6.32-2.75,6.32-6.64v-50.01h6.01v49.57c0,7.33-3.89,10.43-12.04,12.01l-4.43,.89-.13-4.33Zm10.02-73.18h6.89v7.78h-6.89v-7.78Z"/>
        <path class="cls-1" d="M225.75,109.45v-23.74c0-8.12,3.89-12.01,12.04-12.01h13.18c8.16,0,12.04,3.89,12.04,12.01v23.74c0,8.12-3.89,12.04-12.04,12.04h-13.18c-8.31,0-12.04-3.92-12.04-12.04Zm25.04,6.54c4.43,0,6.32-1.77,6.32-6.32v-24.31c0-4.43-1.77-6.32-6.32-6.32h-12.84c-4.43,0-6.32,1.77-6.32,6.32v24.44c0,4.43,1.77,6.32,6.32,6.32l12.84-.13Z"/>
        <path class="cls-1" d="M275.6,56.87h6.01v23.14c4.42-4.52,10.53-6.98,16.85-6.77,9.74,0,13.66,3.89,13.66,12.01v36.23h-6.07v-36.58c0-4.43-1.68-6.32-7.68-6.32-6.1-.16-12.05,1.88-16.76,5.75v37.15h-6.01V56.87Z"/>
        <path class="cls-1" d="M325.42,73.69h6.04v6.32c4.38-4.57,10.49-7.07,16.82-6.89,9.74,0,13.63,3.89,13.63,12.01v36.36h-6.01v-36.58c0-4.43-1.71-6.32-7.71-6.32-6.09-.16-12.02,1.89-16.72,5.75v37.15h-6.04v-47.8Z"/>
        <path class="cls-1" d="M375.28,73.69h6.01v6.32c4.39-4.56,10.49-7.06,16.82-6.89,9.74,0,13.63,3.89,13.63,12.01v36.36h-6.01v-36.58c0-4.43-1.68-6.32-7.71-6.32-6.09-.16-12.02,1.89-16.72,5.75v37.15h-6.01v-47.8Z"/>
        <polygon class="cls-1" points="436.8 121.49 419.44 73.69 425.76 73.69 439.93 113.97 454.5 73.69 460.51 73.69 437.24 135.65 431.55 135.65 436.8 121.49"/>
        <path class="cls-1" d="M496.45,114.79v6.58h-6.04V56.87h6.04v23.36c4.58-4.71,10.95-7.23,17.51-6.92,10.46,0,14.35,3.92,14.35,12.04v24.44c0,8.16-3.89,12.04-14.35,12.04-6.58,.27-12.96-2.3-17.51-7.05Zm25.83-4.77v-25.29c0-4.43-1.74-6.32-8.41-6.32-6.32-.3-12.52,1.75-17.42,5.75v26.02c4.9,4.01,11.1,6.06,17.42,5.75,6.67,.41,8.41-1.36,8.41-5.79v-.13Z"/>
        <path class="cls-1" d="M541.15,58.64h7.05v7.78h-6.89l-.16-7.78Zm.44,15.05h6.01v47.8h-6.01v-47.8Z"/>
        <rect class="cls-1" x="562.49" y="56.87" width="6.01" height="64.62"/>
        <path class="cls-1" d="M581.78,109.45v-23.74c0-8.12,3.89-12.01,12.04-12.01h13.18c8.16,0,12.04,3.89,12.04,12.01v23.74c0,8.12-3.89,12.04-12.04,12.04h-13.18c-8.16,0-12.04-3.92-12.04-12.04Zm25.04,6.54c4.43,0,6.32-1.77,6.32-6.32v-24.31c0-4.43-1.77-6.32-6.32-6.32h-12.84c-4.43,0-6.32,1.77-6.32,6.32v24.44c0,4.43,1.77,6.32,6.32,6.32l12.84-.13Z"/>
        <path class="cls-1" d="M633.75,109.45v-30.44h-7.08v-5.31h7.08v-11.51h6.13v11.51h11.95v5.31h-11.95v30.79c0,4.43,1.77,6.32,6.32,6.32h5.75v5.5h-5.94c-8.38-.13-12.27-4.05-12.27-12.17Z"/>
        <path class="cls-1" d="M663.21,109.45v-30.44h-7.08v-5.31h7.08v-11.51h6.01v11.51h11.95v5.31h-11.95v30.79c0,4.43,1.77,6.32,6.32,6.32h5.75v5.5h-5.91c-8.28-.13-12.17-4.05-12.17-12.17Z"/>
        <path class="cls-1" d="M688.53,107.68c0-9.93,3.89-12.65,12.04-13.47,4.33-.44,11.13-.98,18.97-1.33v-7.68c0-4.43-1.77-6.32-6.32-6.32h-11c-4.39,0-6.32,1.77-6.32,6.32v1.33h-6.01v-.82c0-8.12,3.89-12.01,12.04-12.01h11.32c8.16,0,12.04,3.89,12.04,12.01v35.79h-6.01v-6.7c-3.98,4.71-8.41,6.92-17.1,6.92-9.77,.13-13.66-4.14-13.66-14.04Zm30.98,3.16v-13.78l-18.78,2.12c-4.43,.54-6.32,1.77-6.32,8.5s1.77,8.85,7.97,8.85c6.23,.26,12.33-1.79,17.13-5.75v.06Z"/>
      </g>
    </g>
  </g>
</svg>